<?xml version="1.0" encoding="utf-8"?>
<!-- Generator: Adobe Illustrator 26.2.1, SVG Export Plug-In . SVG Version: 6.00 Build 0)  -->
<svg version="1.1" id="top" xmlns="http://www.w3.org/2000/svg" xmlns:xlink="http://www.w3.org/1999/xlink" x="0px" y="0px"
	 viewBox="0 0 71 71" style="enable-background:new 0 0 71 71;" xml:space="preserve">
<style type="text/css">
	.st0{fill:#56C4C5;}
	.st1{enable-background:new    ;}
	.st2{fill:#FFFFFF;}
</style>
<circle id="Ellipse_9" class="st0" cx="35.5" cy="35.5" r="35.5"/>
<g class="st1">
	<path class="st2" d="M27.6,30.1l0.4,3.4L25,32.9L24.2,41h-3.5l-0.8-8.1L17,33.5l0.4-3.4H27.6z"/>
	<path class="st2" d="M28.3,35.6c0-1.9,0.5-3.3,1.6-4.3c1.1-1,2.7-1.5,4.7-1.5c2,0,3.6,0.5,4.7,1.5c1.1,1,1.6,2.4,1.6,4.3
		s-0.6,3.3-1.7,4.2c-1.2,0.9-2.7,1.4-4.6,1.4c-1.9,0-3.5-0.5-4.6-1.4C28.9,38.9,28.3,37.5,28.3,35.6z M36.2,35.5
		c0-2.4-0.5-3.6-1.6-3.6c-1.1,0-1.6,1.2-1.6,3.6s0.5,3.6,1.6,3.6C35.7,39.2,36.2,38,36.2,35.5z"/>
	<path class="st2" d="M49,37.8h-2.2L46.4,41h-3.5l-1.1-10.9h8c1.3,0,2.3,0.3,3.1,1c0.8,0.6,1.2,1.6,1.2,2.8c0,0.7-0.1,1.4-0.4,1.9
		s-0.7,1-1.2,1.3C51.5,37.6,50.3,37.8,49,37.8z M47.8,35.5c0.6,0,1-0.2,1.3-0.5c0.3-0.3,0.5-0.7,0.5-1.2c0-0.5-0.2-0.9-0.5-1.1
		s-0.7-0.4-1.2-0.4h-0.7L47,35.5H47.8z"/>
</g>
</svg>
