<?xml version="1.0" encoding="utf-8"?>
<!-- Generator: Adobe Illustrator 26.2.1, SVG Export Plug-In . SVG Version: 6.00 Build 0)  -->
<svg version="1.1" id="圖層_1" xmlns="http://www.w3.org/2000/svg" xmlns:xlink="http://www.w3.org/1999/xlink" x="0px" y="0px"
	 viewBox="0 0 533.1 108" style="enable-background:new 0 0 533.1 108;" xml:space="preserve">
<style type="text/css">
	.st0{fill:#56C4C5;}
	.st1{fill:#FFFFFF;}
	.st2{font-family:'AdobeMingStd-Light-B5pc-H';}
	.st3{font-size:14.7742px;}
</style>
<g>
	<path class="st0" d="M48.6,92.4c-6.7,0-12.9-0.2-19.1,0s-12-0.7-16.4-5.8c-3.2-3.8-5-8.5-5.1-13.5c0.1-1.5-0.9-2.9-2.4-3.2
		C2.2,68.8-0.1,65.6,0,62C0,56.7,0,51.4,0,46.1c-0.2-3.6,2.1-6.9,5.6-8C7.6,37.4,8,36.3,8,34.3c-0.1-6.2,0.1-12.5,0.6-18.7
		C9.9,6.5,17.9-0.3,27.1,0c25.5,0.4,51.1,0.4,76.7,0c10-0.3,18.4,7.3,19,17.3c0.4,6,0.3,12,0.3,18.1c0,1.9,0.3,3.1,2.5,3.7
		c3.8,1.1,5.7,4,5.8,8.1c0.1,5.3,0,10.6,0,15.9c0,3.7-1.7,6.7-5.3,7.8c-2.6,0.8-3,2.5-3.3,4.7c-1.2,7.8-4.9,13.8-12.9,16.3
		c-1.5,0.4-3,0.6-4.5,0.6c-8,0-16-0.1-23.9,0.1c-2.4,0.1-4.7,0.8-6.7,2.1c-5.9,3.7-11.5,7.7-17.2,11.7c-2.2,1.6-4.5,2.6-7,0.9
		s-3.3-4.2-2.9-7.2C48,97.5,48.2,95.2,48.6,92.4z M14.2,32.6c0,13.9-0.2,27.2,0.1,40.6c0.2,8.5,5.4,13.1,14,13.1
		c7.2,0,14.3,0,21.5,0c5.5,0,6.2,0.9,5.2,6.3c-0.5,2.6-0.7,5.2-1.1,8.5c6.6-4.5,12.3-8.7,18.2-12.4c2.2-1.4,4.8-2.2,7.4-2.3
		c8.1-0.3,16.1-0.1,24.2-0.1c6.8-0.1,10.8-3.1,12.6-9.4c0.4-1.6,0.6-3.2,0.6-4.8c0-12.3,0-24.7,0-37.1c-0.1-0.8-0.2-1.6-0.3-2.5
		c-7.4,0-14.7,0-21.9,0C86,32.6,78,30.4,71.9,24c-3-3.2-5.2-7.1-7.8-10.7c-2.7,7-7.9,12.8-14.6,16.1c-4.8,2.3-10.1,3.4-15.4,3.2
		C27.6,32.6,21.1,32.6,14.2,32.6z M7.7,64.6V43.2C4.5,45.4,4.6,62.7,7.7,64.6L7.7,64.6z M123.4,44.3v21.6c2.7-1.1,2.7-1.2,2.7-5.1
		C126.1,45.5,126.1,45.5,123.4,44.3L123.4,44.3z"/>
	<path class="st1" d="M7.7,43.2v21.5"/>
	<path class="st0" d="M65.9,75.1c-11.3-0.3-19.4-6.3-22-16.6c-0.3-0.8-0.5-1.8-0.3-2.7c0.4-1.1,1.2-2.6,2.1-2.7
		c0.9-0.1,2.2,1,2.9,1.9c0.6,0.9,0.6,2.3,1,3.5c2.3,7,8,10.8,16,10.9c8,0.1,13.8-3.7,16.3-10.5c0.4-1,0.7-2.1,1-3.2
		c0.3-1.9,1.5-3.3,3.3-2.5c1.2,0.8,1.9,2.1,1.9,3.4c-1.3,7.9-5.5,13.8-13.2,16.6C71.9,74,68.9,74.6,65.9,75.1z"/>
	<g id="CJz1BK.tif">
		<g>
			<path d="M202.2,43.9c4.4-3.2,8.7-4.7,13.6-4.3c9.2,0.9,15.2,7.1,15.4,16.3c0.1,6.1,0,12.2,0,18.4c0,2.4-0.9,4-3.5,4.1
				c-2.6,0-3.6-1.8-3.6-4c-0.1-5.7,0-11.4-0.1-17.1c-0.1-8.7-7.6-13.7-15.7-10.5c-4.1,1.6-6.1,4.5-6.2,8.9c0,5.6,0,11.2,0,16.8
				c0,0.8,0.1,1.6,0,2.4c-0.3,2.2-1.3,3.7-3.8,3.5c-2.4-0.2-3.3-1.6-3.3-3.9c0-5.9,0-11.8,0-17.8c0-9.6,0-19.2,0-28.8
				c0-2.4,0.5-4.3,3.3-4.5c2.4-0.2,3.7,1.3,3.8,4.5C202.2,33,202.2,38.2,202.2,43.9z"/>
			<path d="M272.9,72.8c-4.1,4.1-8.9,6.2-14.7,5.7c-9.9-0.8-17.1-9.2-16.6-19.9c0.4-11.2,8.7-19.2,19.8-19c11,0.2,19,8.5,19.1,19.7
				c0,4.7,0,9.4,0,14.1c0,2.4-0.2,4.7-3.3,4.9c-3,0.2-3.8-1.9-3.9-4.4C273.3,73.7,273.1,73.4,272.9,72.8z M248.4,59.3
				c0.1,7.6,5.5,13.2,12.8,13.1c7.2,0,12.6-5.8,12.6-13.4c-0.1-7.5-5.6-13.3-12.8-13.2C253.7,45.9,248.3,51.6,248.4,59.3z"/>
			<path d="M386,72.4c-4.4,4.4-9.2,6.5-15,6.1c-8.5-0.6-15.3-7-16.5-15.8c-1-8,1.1-14.9,7.9-19.6c6.4-4.4,13.5-4.7,20.4-1.2
				c6.4,3.2,9.8,8.8,10.2,16c0.3,5.4,0.1,10.8,0.1,16.2c0,2.5-0.7,4.3-3.5,4.4c-2.6,0-3.5-1.7-3.5-4.1
				C386.2,73.9,386.2,73.5,386,72.4z M361.1,59.1c0,7.7,5.3,13.3,12.6,13.3c7.3,0,12.7-5.6,12.8-13.2c0-7.6-5.4-13.3-12.6-13.4
				C366.6,45.8,361.1,51.4,361.1,59.1z"/>
			<path d="M441,56.6c4.5,5.6,8.9,10.8,13.2,16.2c2.1,2.7,1.5,5.5-1.5,5.8c-1.2,0.1-2.9-0.8-3.8-1.8c-3.7-4.2-7.1-8.7-10.7-13
				c-0.7-0.9-1.4-1.7-2.1-2.5c-3,1.4-4,3.4-3.7,6.5c0.2,2.3,0.1,4.7,0,7c-0.1,2.2-1.2,3.7-3.7,3.6c-2.3-0.1-3.1-1.7-3.1-3.8
				c0-15.7,0-31.4,0-47.2c0-2.2,0.6-3.9,3.1-4c2.7-0.1,3.6,1.7,3.6,4c0,8.1,0,16.1,0,24.2c0,1.1,0,2.1,0,4
				c5.3-4.7,9.9-8.8,14.5-12.9c0.8-0.7,1.7-1.5,2.5-2.2c1.6-1.5,3.3-1.7,4.8,0.1c1.4,1.6,0.9,3.2-0.6,4.6c-3.4,3.1-6.9,6.1-10.3,9.2
				C442.7,55,441.9,55.7,441,56.6z"/>
			<path d="M467.2,61.7c0.4,6.6,7.2,11.9,14.2,10.9c2.7-0.4,5.2-1.6,7.7-2.7c2-0.9,3.8-0.9,4.7,1.1c0.4,0.9,0.1,2.7-0.6,3.4
				c-4.9,4.8-15.6,5.6-22.6,2c-7.2-3.7-11.2-11.6-10.1-20c1.2-8.5,6.6-14.7,14.4-16.3c12.2-2.6,21.7,4.8,22.1,17.3
				c0.1,3.1-0.7,4.1-3.9,4.1c-7.9,0.1-15.8,0-23.7,0C468.8,61.5,468,61.6,467.2,61.7z M467.2,55.8c7.9,0,15.5,0,23.2,0
				c-0.3-5.9-4.4-10-10.2-10.3C473.4,45.2,468.3,49.1,467.2,55.8z"/>
			<path d="M333.5,30c-5.1,0-9.7,0-14.3,0c-2.4,0-4.5-0.6-4.5-3.4c0-2.8,2.1-3.3,4.5-3.3c11.9,0.1,23.8,0,35.7,0
				c2.3,0,4.3,0.4,4.3,3.1c0.1,2.8-1.8,3.5-4.3,3.5c-4.6,0-9.2,0-14.1,0c-0.1,1.3-0.2,2.4-0.2,3.5c0,13,0,25.9,0,38.9
				c0,0.8,0.1,1.6,0,2.4c-0.3,2.2-1.4,3.7-3.8,3.6c-2.3-0.1-3.4-1.6-3.4-3.9c0-7.2,0-14.5,0-21.7C333.5,45.3,333.5,37.8,333.5,30z"
				/>
			<path d="M169.3,78.6c-10.2-0.4-17.7-7.1-18.8-16.7c-1.2-10.5,4.1-19.1,13.5-21.5c6.8-1.7,13-0.6,18.2,4.5
				c1.4,1.4,2.6,2.9,0.9,4.7c-1.7,1.9-3.5,1.2-5.1-0.2c-2.6-2.4-5.6-3.6-9.2-3.5c-6.8,0.2-11.5,5.3-11.7,12.5
				c-0.2,7.8,4.3,13.5,11.1,14c3.4,0.3,6.5-0.3,9.3-2.3c1.8-1.3,3.7-1.6,5.1,0.5c1.4,2.1,0,3.4-1.6,4.6
				C177.7,77.7,173.7,78.7,169.3,78.6z"/>
			<path d="M293,47.5c-2.8-0.6-6.2,0.6-6.3-3.1c-0.1-4.2,3.8-2.6,6.3-3.5c0-2.9,0-5.8,0-8.7c0-2.4,0.6-4.3,3.4-4.5
				c2.4-0.1,3.5,1.4,3.6,4.6c0,2.8,0,5.7,0,9c2,0,3.8,0,5.6,0c2.1,0,3.8,0.8,3.7,3.1c-0.1,2.2-1.7,2.8-3.7,2.8c-1.7,0-3.4,0-5.3,0
				c0,6.8-0.3,13.3,0.1,19.7c0.2,3,2.8,4.7,6,4.6c2.4-0.1,4.5,0.5,4.4,3.4c-0.1,3-2.3,3.5-4.8,3.5c-6.4,0-11.8-4.3-12.5-10.8
				c-0.6-5.4-0.4-10.8-0.5-16.2C293,50.1,293,48.8,293,47.5z"/>
			<path d="M402.9,47c0-6.2,0-12.5,0-18.7c0-3.6,1-5.1,3.5-4.9c3.1,0.2,3.4,2.4,3.4,4.8c0,12,0,24.1,0,36.1c0,5.5,0.6,6.1,5.8,7.3
				c1,0.2,2.5,1.7,2.4,2.5c-0.1,1.2-1,2.9-2,3.6c-2.9,1.7-8,0.4-10-3.1c-1.6-2.8-2.7-6.2-3-9.4C402.5,59.2,402.9,53.1,402.9,47z"/>
			<path d="M513.6,44.5c4.8-4.1,9.7-5.9,15.4-4.6c1.1,0.2,2.3,0.6,3,1.3c0.7,0.8,1.3,2.3,1,3.1c-0.3,0.8-1.8,1.7-2.8,1.7
				c-2.8,0.2-5.7-0.4-8.5,0c-5.7,0.8-8.3,4-8.4,9.8c0,6.1,0,12.2,0,18.3c0,2.5-0.6,4.3-3.5,4.3c-2.9-0.1-3.4-2-3.4-4.4
				c0-9.7,0-19.4,0-29.1c0-2.2,0-4.5,2.9-4.9C512.3,39.5,513.4,41.3,513.6,44.5z"/>
		</g>
	</g>
	<text transform="matrix(1 0 0 1 247.2997 64.8661)" class="st2 st3">        }</text>
</g>
</svg>
